<?xml version="1.0" standalone="no"?>
<!DOCTYPE svg PUBLIC "-//W3C//DTD SVG 20010904//EN"
 "http://www.w3.org/TR/2001/REC-SVG-20010904/DTD/svg10.dtd">
<svg version="1.0" xmlns="http://www.w3.org/2000/svg"
 width="1024.000000pt" height="1024.000000pt" viewBox="0 0 1024.000000 1024.000000"
 preserveAspectRatio="xMidYMid meet">
<metadata>
Created by potrace 1.14, written by Peter Selinger 2001-2017
</metadata>
<g transform="translate(0.000000,1024.000000) scale(0.100000,-0.100000)"
fill="#000000" stroke="none">
<path d="M4863 10230 c-1781 -91 -3375 -1092 -4235 -2659 -503 -914 -711
-1980 -592 -3031 153 -1366 853 -2610 1951 -3467 128 -100 438 -308 578 -389
1188 -681 2596 -860 3919 -498 1446 396 2676 1448 3295 2815 239 530 376 1046
437 1649 21 203 24 694 5 890 -82 882 -352 1666 -817 2378 -325 496 -751 949
-1228 1305 -431 321 -942 588 -1441 752 -598 197 -1253 286 -1872 255z m575
-830 c2 -6 21 -10 43 -10 28 0 39 -4 39 -15 0 -12 17 -15 91 -15 85 0 92 -2
111 -25 16 -21 28 -25 69 -25 36 0 49 -4 49 -14 0 -8 -6 -16 -12 -19 -7 -2 -4
-3 7 -1 11 2 35 4 53 4 23 0 32 5 32 16 0 14 2 14 16 3 14 -12 14 -14 -3 -20
-14 -5 -12 -8 12 -11 17 -3 5 -5 -25 -4 -30 1 -80 -1 -110 -4 -48 -6 -41 -7
50 -10 98 -3 101 -4 40 -9 -126 -11 341 -31 727 -31 217 0 382 -4 397 -10 23
-8 150 -171 225 -288 134 -207 401 -732 481 -946 58 -155 107 -337 117 -430 6
-54 5 -60 -9 -48 -13 10 -17 9 -23 -5 -6 -17 -7 -17 -17 0 -5 11 -11 24 -12
30 -6 31 -91 192 -143 272 -76 116 -146 200 -247 300 -153 151 -281 245 -444
325 -143 70 -276 111 -422 130 -41 5 -324 10 -629 10 l-553 0 7 23 c4 12 7 29
8 38 1 10 7 15 16 11 9 -3 12 -1 7 6 -4 7 -2 12 4 12 6 0 21 11 34 25 13 14
28 25 35 25 15 0 14 20 -1 20 -7 0 -1 10 15 21 15 11 24 25 21 31 -4 6 -1 9 7
6 8 -3 18 5 24 16 6 12 28 32 49 46 27 18 36 30 34 45 -4 17 2 20 34 22 22 2
36 -1 33 -6 -3 -5 13 -1 34 10 22 10 47 19 55 19 8 0 17 4 20 9 3 5 43 10 88
10 107 2 121 4 130 16 5 6 8 5 8 -2 0 -7 6 -13 14 -13 7 0 19 -6 25 -14 7 -8
28 -14 50 -13 22 1 46 -5 55 -12 12 -10 23 -11 39 -4 32 15 134 13 147 -2 9
-11 17 -10 42 2 25 13 35 14 51 4 15 -10 21 -10 27 -1 6 9 24 11 65 5 52 -6
79 -15 152 -48 12 -5 28 -7 36 -4 8 3 23 -3 33 -14 9 -10 23 -19 31 -19 7 0
13 -3 13 -8 0 -12 110 -48 175 -57 11 -1 23 -3 27 -4 4 0 5 -7 2 -14 -7 -20
21 -51 41 -44 10 4 15 13 12 21 -7 17 82 -26 126 -61 23 -18 31 -19 62 -9 63
20 54 28 -130 131 -224 125 -313 165 -433 197 -114 30 -121 30 -387 32 -148 2
-325 6 -391 11 -105 7 -125 6 -145 -9 -31 -21 -61 -22 -33 0 19 15 19 15 -1
10 -11 -2 -36 -8 -55 -11 -83 -16 -168 -71 -131 -83 22 -7 10 -31 -35 -74
-188 -177 -182 -169 -220 -306 -2 -7 -8 -10 -14 -7 -7 4 -7 12 0 25 5 10 10
29 10 42 0 19 -4 17 -27 -17 -15 -22 -38 -51 -51 -65 -13 -14 -35 -42 -48 -63
-14 -21 -36 -42 -49 -47 -70 -27 -79 -33 -67 -37 7 -3 31 2 52 11 22 9 40 12
40 6 0 -5 -14 -33 -31 -62 -17 -29 -51 -95 -76 -146 -24 -52 -60 -116 -79
-143 -36 -49 -39 -62 -63 -243 -7 -50 -17 -80 -39 -110 -86 -121 -123 -180
-118 -192 3 -7 0 -16 -6 -20 -7 -5 -2 -11 13 -16 17 -7 26 -5 35 6 6 9 17 16
24 16 7 0 10 7 6 15 -3 8 -1 15 4 15 22 0 106 207 116 287 5 39 34 114 65 169
12 21 32 58 45 80 13 23 20 44 17 48 -4 3 -1 6 5 6 7 0 12 11 12 24 0 14 4 27
8 30 5 3 17 34 27 71 11 36 22 65 26 65 3 0 9 14 13 30 3 18 12 30 21 30 17 0
20 16 5 25 -15 9 -2 25 15 18 8 -3 15 0 15 6 0 6 -7 11 -15 11 -20 0 -19 15 2
36 10 9 18 23 19 31 3 21 10 26 44 28 17 2 30 -2 31 -9 0 -6 2 -76 5 -156 3
-80 5 -149 5 -155 3 -44 -25 -343 -40 -435 -11 -63 -22 -159 -26 -213 -3 -53
-13 -109 -21 -125 -7 -15 -14 -35 -14 -44 0 -9 -5 -20 -10 -23 -7 -4 -1 -17
15 -32 17 -18 25 -36 24 -57 l-1 -31 -9 30 c-6 21 -7 11 -4 -34 3 -35 6 -91 6
-125 1 -51 3 -56 10 -31 6 23 7 17 5 -27 -1 -32 1 -58 6 -58 11 0 10 -34 -1
-46 -11 -10 25 -128 49 -162 8 -12 26 -23 40 -25 14 -2 19 -2 12 0 -8 3 -11
11 -8 20 4 11 1 13 -14 8 -11 -4 -20 -3 -20 2 -4 75 -1 290 7 443 5 107 7 276
5 375 -10 434 -3 592 30 630 4 5 8 17 8 27 0 10 5 18 11 18 6 0 8 7 5 15 -3 9
1 18 9 21 8 4 12 10 9 15 -3 5 -10 7 -15 4 -5 -4 -8 11 -8 32 1 23 3 29 6 16
2 -13 9 -23 14 -23 5 0 9 -5 9 -12 0 -13 51 -91 63 -96 4 -2 7 -10 7 -17 0 -8
18 -41 40 -74 22 -33 40 -65 40 -71 0 -6 4 -9 9 -6 5 3 15 -9 22 -27 7 -17 14
-36 17 -42 2 -5 -1 -3 -7 5 -9 13 -11 12 -11 -3 0 -11 5 -17 13 -14 33 12 -7
148 -75 253 -84 130 -98 154 -97 171 0 15 2 15 7 3 4 -9 15 -27 25 -40 13 -19
20 -22 26 -12 6 10 21 1 57 -34 43 -40 88 -69 104 -66 3 0 4 -341 2 -758 l-3
-759 23 -12 22 -12 -22 -8 -22 -8 -2 -493 c-2 -762 0 -982 10 -986 5 -1 5 -27
1 -60 -4 -31 -10 -250 -13 -486 -4 -236 -8 -432 -11 -434 -3 -3 -5 2 -5 11 0
8 -4 17 -9 19 -5 2 -13 16 -17 32 -5 20 -3 27 4 22 20 -12 22 13 7 86 -8 40
-15 74 -15 75 0 2 5 2 11 0 6 -1 14 4 16 11 3 6 -2 12 -11 12 -10 0 -16 9 -16
25 0 18 4 23 16 18 15 -5 14 -3 -1 21 -14 20 -20 24 -26 14 -7 -10 -9 -9 -9 4
0 9 9 20 20 23 27 9 25 23 -7 53 -35 32 -76 109 -66 125 4 7 6 24 5 38 -3 28
28 64 35 42 6 -18 23 -16 23 1 0 8 -9 18 -20 21 -22 7 -28 35 -7 35 18 0 37
-21 37 -41 0 -10 3 -20 8 -22 4 -3 7 15 7 39 0 43 -8 57 -18 32 -4 -9 -6 -10
-6 -1 -1 6 5 18 13 25 12 13 13 26 7 96 -2 23 -21 12 -21 -12 0 -13 -7 -26
-15 -30 -16 -6 -21 9 -6 18 5 3 9 17 9 32 0 27 19 47 35 37 5 -3 4 5 -3 17
-10 18 -14 20 -21 9 -6 -10 -9 -6 -9 14 0 22 4 27 24 27 21 0 36 16 36 39 0 5
-34 14 -75 21 -41 7 -75 17 -75 21 0 5 15 13 33 18 17 5 26 10 20 10 -20 1
-15 25 7 39 23 14 27 34 6 26 -19 -7 -35 25 -29 59 4 20 1 27 -11 27 -9 0 -16
5 -16 10 0 14 7 13 36 -6 13 -9 27 -14 31 -10 3 3 1 6 -5 6 -19 0 -14 34 8 58
12 12 17 22 11 22 -5 0 -5 15 0 38 5 20 8 48 8 62 0 24 0 24 -14 6 -8 -10 -12
-23 -8 -29 3 -6 1 -7 -6 -3 -6 4 -9 16 -6 27 4 11 2 19 -4 19 -6 0 -11 5 -11
11 0 6 9 8 20 4 12 -4 20 -2 20 5 0 7 -9 14 -20 17 -26 7 -26 37 1 64 20 20
21 20 35 2 13 -16 14 -15 8 12 -4 17 -10 37 -14 45 -4 8 -5 30 -3 48 5 29 3
33 -13 30 -13 -2 -19 3 -19 17 0 14 6 19 18 17 9 -2 17 2 17 8 0 6 -9 10 -20
8 -10 -2 -18 1 -17 7 1 5 5 9 10 8 17 -6 5 34 -18 59 -31 33 -31 38 -2 38 12
0 29 5 37 10 14 9 12 11 -20 14 -8 0 -14 7 -13 14 4 16 -5 15 -23 -3 -9 -8
-20 -15 -25 -15 -17 0 -9 18 16 34 22 14 23 19 12 36 -6 11 -18 18 -25 15 -7
-3 -10 0 -7 5 3 6 17 10 30 10 28 0 39 24 19 41 -10 8 -12 15 -4 23 18 18 11
28 -17 22 -16 -3 -22 -3 -15 0 7 4 12 27 12 64 0 54 2 58 25 64 18 5 27 15 31
36 4 16 12 31 19 34 20 7 16 67 -4 64 -17 -3 -19 17 -5 60 6 22 5 23 -14 11
-11 -7 -18 -18 -15 -24 3 -5 0 -4 -7 2 -11 10 -11 16 3 31 23 25 22 59 0 59
-10 0 -21 -5 -25 -11 -8 -13 -37 21 -38 43 0 8 -7 23 -16 32 -14 15 -20 16
-38 7 -23 -13 -58 -12 -96 3 -32 13 -80 82 -80 114 0 28 -17 42 -33 26 -8 -8
-6 -11 7 -11 16 0 16 -1 1 -17 -16 -16 -16 -17 4 -25 20 -7 26 -22 23 -63 -2
-14 0 -16 6 -7 7 10 11 10 21 -2 7 -8 10 -20 6 -26 -4 -6 4 -20 17 -31 16 -14
19 -22 10 -25 -17 -8 -5 -24 13 -17 8 3 15 1 15 -4 0 -5 13 -16 29 -26 22 -13
32 -30 42 -66 8 -31 17 -47 25 -44 6 2 15 0 18 -6 4 -5 -3 -12 -14 -16 -25 -8
-25 -15 2 -66 11 -23 23 -62 25 -88 4 -40 1 -50 -24 -77 l-29 -31 24 -22 c31
-28 21 -39 -14 -17 -20 14 -24 23 -20 42 5 17 2 26 -9 30 -10 4 -13 13 -10 25
4 11 2 19 -4 19 -6 0 -11 -9 -11 -20 0 -11 -5 -20 -11 -20 -5 0 -7 -4 -4 -10
8 -13 -5 -13 -25 0 -13 8 -13 10 1 10 26 0 40 107 19 140 -8 13 -10 12 -10 -2
0 -10 -4 -18 -10 -18 -5 0 -10 -9 -10 -19 0 -11 -8 -26 -18 -33 -23 -16 -34
-45 -21 -53 5 -4 7 -10 4 -15 -3 -4 2 -13 10 -20 20 -16 19 -50 0 -50 -9 0
-18 -7 -21 -15 -8 -19 -21 -19 -39 -1 -12 11 -11 17 2 36 l16 22 -27 -17 c-24
-16 -26 -16 -33 1 -6 15 -7 15 -14 -4 -10 -25 -37 -29 -45 -7 -4 9 -19 15 -41
15 -19 0 -32 -4 -28 -9 3 -5 -5 -20 -17 -33 -13 -13 -34 -37 -48 -54 -34 -40
-77 -67 -83 -51 -3 9 -8 9 -20 -2 -13 -10 -14 -17 -6 -27 8 -9 5 -15 -11 -24
-11 -6 -25 -8 -30 -5 -6 4 -9 1 -8 -5 2 -7 -15 -22 -38 -35 -72 -38 -80 -47
-80 -84 1 -29 5 -36 31 -42 18 -5 32 -4 36 2 3 5 10 9 15 8 21 -4 34 2 34 16
0 9 6 12 15 9 8 -4 15 -12 15 -20 0 -8 6 -14 13 -14 8 0 7 -3 -3 -10 -13 -8
-12 -11 4 -23 12 -9 17 -21 14 -35 -4 -13 -2 -19 6 -16 8 3 11 17 8 36 -3 21
-1 29 7 24 6 -4 11 -1 11 8 0 9 3 16 8 16 4 0 12 10 17 22 6 12 24 32 40 43
19 12 29 27 27 38 -2 11 3 17 13 17 12 0 16 -6 12 -20 -6 -24 1 -25 25 -3 17
15 18 15 18 -4 0 -22 -25 -37 -42 -27 -7 4 -8 -5 -3 -26 6 -28 5 -32 -9 -27
-8 3 -18 2 -21 -3 -4 -6 -2 -10 4 -10 5 0 17 -3 27 -7 12 -4 15 -3 10 5 -4 7
-1 12 8 12 8 0 16 8 18 18 3 12 6 9 10 -10 4 -20 1 -28 -9 -28 -10 0 -11 -5
-3 -19 19 -37 -10 -77 -66 -92 -29 -9 -33 -13 -23 -25 6 -8 19 -14 28 -14 14
-1 13 -3 -3 -15 -14 -11 -24 -12 -38 -4 -24 13 -45 -2 -32 -23 5 -7 7 -24 5
-37 -4 -30 23 -24 27 6 2 12 10 24 18 27 12 5 15 0 12 -21 -4 -33 -66 -85
-105 -87 -41 -2 -53 -13 -53 -51 0 -20 -6 -35 -15 -39 -8 -3 -15 -15 -15 -26
0 -21 -39 -43 -67 -38 -22 4 -27 -59 -8 -88 11 -16 13 -36 9 -62 -5 -31 -3
-40 10 -45 9 -4 16 -13 16 -21 0 -18 42 -29 55 -13 16 20 74 49 85 42 6 -3 10
0 10 7 0 8 5 6 11 -4 5 -10 14 -18 19 -18 16 0 12 27 -4 33 -19 8 -88 -3 -104
-16 -8 -7 -16 -7 -23 0 -12 12 63 48 84 40 20 -8 29 3 17 18 -15 18 16 28 42
14 15 -8 24 -7 41 8 19 17 20 17 14 1 -4 -12 -1 -18 8 -18 8 0 15 4 15 9 0 5
10 11 21 14 17 4 19 3 10 -6 -6 -6 -11 -18 -11 -27 0 -18 -46 -44 -61 -35 -14
9 -11 -9 5 -31 14 -18 15 -18 21 -1 8 19 25 23 25 6 0 -6 -7 -17 -15 -26 -12
-11 -19 -12 -29 -4 -7 6 -16 8 -20 4 -4 -4 -16 -8 -26 -8 -11 0 -20 -4 -20
-10 0 -5 10 -10 23 -10 19 0 22 -6 25 -42 2 -24 8 -43 15 -44 7 0 3 -5 -8 -10
-16 -7 -14 -8 10 -4 17 3 36 15 44 25 16 24 31 26 31 5 0 -9 -11 -21 -25 -27
-31 -14 -33 -32 -3 -22 20 6 21 5 6 -10 -10 -9 -29 -15 -45 -14 -15 2 -30 -1
-32 -7 -6 -16 -63 -55 -72 -50 -4 3 -10 1 -14 -5 -3 -5 -1 -10 5 -10 7 0 10
-6 8 -12 -6 -18 17 -39 35 -33 11 5 14 -4 13 -37 -1 -35 2 -43 19 -45 16 -1
17 -1 2 3 -14 5 -16 9 -6 20 17 21 28 17 39 -12 7 -19 7 -31 -1 -40 -9 -11 -6
-14 14 -14 14 0 32 -7 41 -15 17 -17 30 -20 21 -5 -3 6 0 10 8 10 8 0 17 -7
21 -15 3 -10 -1 -15 -12 -15 -10 0 -33 -16 -52 -35 -19 -19 -39 -35 -44 -35
-6 0 -3 7 7 14 9 7 17 18 17 24 0 6 7 15 16 20 23 13 8 35 -15 22 -19 -9 -41
4 -41 25 0 5 -11 15 -25 22 -14 6 -25 7 -25 3 0 -5 6 -11 13 -13 9 -4 8 -8 -3
-16 -22 -16 -40 -13 -34 4 4 8 2 15 -3 15 -17 0 -23 -13 -12 -26 14 -17 4 -44
-15 -44 -10 0 -13 6 -10 15 4 10 0 15 -10 15 -9 0 -19 -7 -23 -16 -4 -10 -8
-12 -13 -5 -4 7 -19 9 -38 5 -25 -5 -30 -9 -22 -20 8 -9 6 -24 -9 -56 -14 -31
-16 -45 -8 -50 7 -4 8 -8 2 -8 -6 0 -10 -37 -10 -90 -1 -50 3 -90 8 -90 4 0 5
-5 2 -11 -4 -5 -7 -34 -7 -62 1 -42 -2 -49 -11 -37 -18 22 -56 42 -68 34 -5
-3 -7 -14 -4 -24 14 -44 14 -59 -1 -53 -10 4 -14 -3 -14 -26 0 -17 5 -31 10
-31 6 0 10 9 10 20 0 13 7 20 20 20 11 0 20 -4 20 -10 0 -5 -6 -10 -13 -10 -7
0 -18 -9 -25 -21 -11 -18 -11 -24 2 -38 9 -10 13 -21 9 -26 -5 -4 -2 -5 5 -1
6 4 12 19 12 33 0 19 4 24 16 19 9 -3 19 -6 24 -6 4 0 10 -6 13 -14 4 -10 0
-12 -15 -8 -17 4 -20 2 -14 -13 4 -12 -1 -25 -15 -38 -16 -15 -20 -27 -15 -48
3 -17 1 -29 -5 -29 -6 0 -7 -5 -3 -12 6 -9 9 -9 12 0 5 17 22 15 22 -3 0 -9
-9 -15 -25 -15 -25 0 -27 -6 -25 -118 0 -13 -5 -20 -10 -17 -6 3 -10 -3 -10
-14 0 -10 6 -21 13 -24 9 -3 9 -7 0 -19 -7 -8 -10 -18 -6 -22 9 -9 10 -166 1
-166 -5 0 -8 -14 -8 -31 0 -17 -4 -28 -10 -24 -5 3 -10 1 -10 -5 0 -6 7 -13
15 -17 14 -5 14 -7 1 -22 -15 -16 -16 -29 -14 -256 0 -27 -1 -94 -3 -148 -1
-53 1 -100 4 -104 4 -3 3 -11 -1 -17 -5 -6 -6 -42 -3 -81 3 -38 4 -146 1 -240
l-5 -170 -7 190 c-17 427 -17 5667 0 5558 4 -28 122 48 122 79 0 22 16 24 28
2 8 -15 11 -11 53 91 15 38 27 118 20 137 -7 18 -26 19 -569 18 -568 0 -610
-3 -777 -40 -54 -12 -208 -66 -265 -93 -87 -41 -239 -147 -320 -224 -119 -112
-288 -339 -306 -410 -4 -15 -15 -36 -25 -47 -10 -10 -16 -23 -13 -28 9 -14 -4
-9 -21 8 -15 15 -17 15 -30 -2 -8 -11 -14 -23 -14 -29 0 -5 6 -2 13 8 11 13
16 15 24 5 7 -9 5 -20 -9 -37 -10 -13 -19 -18 -19 -12 0 6 -5 11 -10 11 -7 0
-9 -15 -5 -37 4 -28 3 -33 -4 -18 -8 17 -10 14 -10 -18 -1 -22 -6 -36 -12 -35
-17 4 -23 -21 -6 -28 13 -5 13 -11 1 -51 -25 -81 -32 -59 -9 27 l6 25 -14 -25
c-21 -36 -30 -87 -18 -95 19 -11 13 -56 -8 -62 -15 -4 -22 -20 -30 -67 -6 -35
-11 -76 -12 -92 0 -16 -4 -38 -9 -49 -10 -22 -10 -22 15 183 23 181 100 464
189 695 21 54 23 67 11 67 -19 0 -19 19 0 40 17 19 95 197 89 203 -2 2 2 4 10
4 13 0 13 -5 0 -35 -8 -19 -14 -37 -14 -41 1 -10 107 213 156 326 97 226 262
530 328 603 l26 30 408 2 c224 1 520 3 657 3 138 0 302 5 365 10 l115 10 -125
5 -125 6 115 4 c103 3 108 4 55 10 l-60 7 85 3 c47 2 73 5 58 7 -35 5 -35 16
-2 42 17 13 41 21 65 21 22 0 39 5 39 10 0 6 18 10 40 10 36 0 40 3 40 25 0
23 3 24 83 28 132 7 472 -3 475 -13z m-798 -105 c0 -8 -7 -15 -16 -15 -14 0
-14 3 -4 15 7 8 14 15 16 15 2 0 4 -7 4 -15z m1457 -52 c-20 -2 -52 -2 -70 0
-17 2 0 4 38 4 39 0 53 -2 32 -4z m-520 -315 c-3 -7 -5 -2 -5 12 0 14 2 19 5
13 2 -7 2 -19 0 -25z m519 23 c-3 -5 -15 -7 -26 -4 -28 7 -25 13 6 13 14 0 23
-4 20 -9z m591 -67 c-3 -3 -12 -4 -19 -1 -8 3 -5 6 6 6 11 1 17 -2 13 -5z
m-1435 -316 c-7 -7 -12 -20 -12 -30 0 -10 -7 -18 -16 -18 -13 0 -12 5 6 30 12
17 24 30 28 30 3 0 1 -5 -6 -12z m183 -176 c-3 -3 -11 0 -18 7 -9 10 -8 11 6
5 10 -3 15 -9 12 -12z m-719 -59 c-10 -10 -19 5 -10 18 6 11 8 11 12 0 2 -7 1
-15 -2 -18z m3141 -885 c-3 -8 -6 -5 -6 6 -1 11 2 17 5 13 3 -3 4 -12 1 -19z
m-10 -70 c-3 -7 -5 -2 -5 12 0 14 2 19 5 13 2 -7 2 -19 0 -25z m-5447 -90 c0
-36 -4 -35 -14 5 -4 16 -2 27 4 27 5 0 10 -14 10 -32z m5474 -124 c3 -8 2 -12
-4 -9 -6 3 -10 10 -10 16 0 14 7 11 14 -7z m-2564 -494 c0 -5 -5 -10 -11 -10
-5 0 -7 5 -4 10 3 6 8 10 11 10 2 0 4 -4 4 -10z m100 -146 c0 -8 -4 -12 -10
-9 -5 3 -10 10 -10 16 0 5 5 9 10 9 6 0 10 -7 10 -16z m39 -20 c-15 -18 -22
-13 -13 10 3 9 10 13 16 10 5 -3 4 -12 -3 -20z m-139 -164 c0 -5 -4 -10 -10
-10 -5 0 -10 5 -10 10 0 6 5 10 10 10 6 0 10 -4 10 -10z m145 -40 c3 -5 1 -10
-4 -10 -6 0 -11 5 -11 10 0 6 2 10 4 10 3 0 8 -4 11 -10z m-175 -24 c0 -8 -4
-18 -10 -21 -5 -3 -10 3 -10 14 0 12 5 21 10 21 6 0 10 -6 10 -14z m78 -135
c3 -8 -1 -12 -9 -9 -7 2 -15 10 -17 17 -3 8 1 12 9 9 7 -2 15 -10 17 -17z
m-348 -31 c0 -5 -5 -10 -11 -10 -5 0 -7 5 -4 10 3 6 8 10 11 10 2 0 4 -4 4
-10z m90 -9 c0 -18 -18 -21 -30 -6 -10 13 -9 15 9 15 11 0 21 -4 21 -9z m-46
-52 c-3 -5 -12 -9 -20 -9 -8 0 -14 -6 -14 -14 0 -8 -7 -16 -15 -20 -22 -8 -18
13 7 39 20 21 55 24 42 4z m271 -89 c-3 -5 -10 -10 -16 -10 -5 0 -9 5 -9 10 0
6 7 10 16 10 8 0 12 -4 9 -10z m35 -20 c0 -5 -4 -10 -10 -10 -5 0 -10 5 -10
10 0 6 5 10 10 10 6 0 10 -4 10 -10z m-220 -24 c0 -3 -4 -8 -10 -11 -5 -3 -10
-1 -10 4 0 6 5 11 10 11 6 0 10 -2 10 -4z m-240 -21 c0 -10 -11 -15 -35 -15
-19 0 -35 5 -35 11 0 5 4 8 9 4 5 -3 12 -1 16 5 10 16 45 12 45 -5z m457 -27
c-3 -7 -5 -2 -5 12 0 14 2 19 5 13 2 -7 2 -19 0 -25z m133 12 c0 -5 -4 -10
-10 -10 -5 0 -10 5 -10 10 0 6 5 10 10 10 6 0 10 -4 10 -10z m-710 -4 c0 -3
-4 -8 -10 -11 -5 -3 -10 -1 -10 4 0 6 5 11 10 11 6 0 10 -2 10 -4z m690 -28
c0 -13 -23 -5 -28 10 -2 7 2 10 12 6 9 -3 16 -11 16 -16z m-120 -42 c0 -8 -4
-18 -10 -21 -5 -3 -10 3 -10 14 0 12 5 21 10 21 6 0 10 -6 10 -14z m53 -1 c9
-21 -11 -29 -28 -11 -20 19 -19 26 4 26 10 0 21 -7 24 -15z m97 6 c0 -17 -25
-30 -40 -20 -13 8 -13 10 0 19 19 12 40 13 40 1z m4 -39 c9 -14 -12 -35 -28
-29 -14 6 -15 9 -4 21 15 17 25 20 32 8z m-94 -102 c0 -5 -5 -10 -11 -10 -5 0
-7 5 -4 10 3 6 8 10 11 10 2 0 4 -4 4 -10z m-380 -20 c0 -11 -7 -20 -15 -20
-8 0 -15 9 -15 20 0 11 7 20 15 20 8 0 15 -9 15 -20z m153 13 c11 -10 -13 -33
-34 -33 -12 0 -19 7 -19 20 0 14 7 20 23 20 13 0 27 -3 30 -7z m-38 -93 c3 -5
-1 -10 -9 -10 -9 0 -16 5 -16 10 0 6 4 10 9 10 6 0 13 -4 16 -10z m302 -12
c-3 -8 -6 -5 -6 6 -1 11 2 17 5 13 3 -3 4 -12 1 -19z m56 -25 c3 -5 -1 -13 -8
-20 -10 -10 -14 -9 -18 1 -8 21 15 37 26 19z m-483 -23 c0 -5 -4 -10 -10 -10
-5 0 -10 5 -10 10 0 6 5 10 10 10 6 0 10 -4 10 -10z m100 -29 c0 -12 -28 -22
-34 -12 -3 5 -3 11 1 15 9 9 33 7 33 -3z m111 -4 c-1 -12 -15 -9 -19 4 -3 6 1
10 8 8 6 -3 11 -8 11 -12z m77 -62 c-3 -3 -9 2 -12 12 -6 14 -5 15 5 6 7 -7
10 -15 7 -18z m-28 5 c0 -5 -4 -10 -10 -10 -5 0 -10 5 -10 10 0 6 5 10 10 10
6 0 10 -4 10 -10z m-475 -107 c0 -14 -6 -28 -13 -31 -7 -2 -10 2 -7 12 3 9 7
23 10 31 7 23 11 18 10 -12z m245 -11 c0 -7 -4 -10 -10 -7 -5 3 -10 16 -10 28
0 18 2 19 10 7 5 -8 10 -21 10 -28z m-293 -2 c-13 -21 -28 -22 -35 -2 -2 7 2
10 12 6 11 -4 16 -1 16 11 0 9 4 13 10 10 6 -4 5 -13 -3 -25z m123 -6 c0 -8
-5 -12 -10 -9 -6 4 -8 11 -5 16 9 14 15 11 15 -7z m230 7 c0 -12 -20 -25 -27
-18 -7 7 6 27 18 27 5 0 9 -4 9 -9z m-243 -37 c-3 -3 -12 -4 -19 -1 -8 3 -5 6
6 6 11 1 17 -2 13 -5z m410 -96 c-3 -8 -6 -5 -6 6 -1 11 2 17 5 13 3 -3 4 -12
1 -19z m-489 -7 c3 -8 -1 -12 -9 -9 -7 2 -15 10 -17 17 -3 8 1 12 9 9 7 -2 15
-10 17 -17z m642 15 c0 -3 -4 -8 -10 -11 -5 -3 -10 -1 -10 4 0 6 5 11 10 11 6
0 10 -2 10 -4z m-195 -36 c-3 -5 -11 -10 -16 -10 -6 0 -7 5 -4 10 3 6 11 10
16 10 6 0 7 -4 4 -10z m-238 -57 c-3 -3 -11 -2 -17 2 -8 5 -7 11 2 22 12 15
13 14 16 -1 2 -10 1 -20 -1 -23z m83 5 c0 -5 -9 -8 -20 -8 -18 0 -19 3 -8 20
9 14 14 16 20 7 4 -7 8 -15 8 -19z m43 -67 c-3 -12 -11 -17 -19 -14 -8 3 -14
0 -14 -6 0 -6 7 -11 15 -11 8 0 15 -4 15 -10 0 -5 -6 -7 -14 -4 -8 3 -26 -2
-40 -11 -14 -10 -26 -13 -26 -7 0 5 8 13 17 16 12 5 14 9 5 18 -18 18 -14 28
11 28 12 0 29 5 37 10 8 5 16 10 17 10 0 0 -1 -9 -4 -19z m374 -18 c-3 -10 -5
-4 -5 12 0 17 2 24 5 18 2 -7 2 -21 0 -30z m-247 18 c0 -12 -29 -23 -41 -15
-18 10 -9 24 16 24 14 0 25 -4 25 -9z m290 -27 c0 -8 -4 -12 -10 -9 -5 3 -10
10 -10 16 0 5 5 9 10 9 6 0 10 -7 10 -16z m-92 -24 c-2 -6 -8 -6 -18 0 -13 9
-13 11 0 20 15 10 25 0 18 -20z m-492 -57 c-10 -10 -19 5 -10 18 6 11 8 11 12
0 2 -7 1 -15 -2 -18z m132 -13 c7 -11 9 -20 4 -20 -4 0 -13 9 -20 20 -7 11 -9
20 -4 20 4 0 13 -9 20 -20z m206 -11 c-2 -5 6 -11 20 -15 15 -3 23 -11 20 -19
-8 -20 -33 -7 -49 26 -19 36 -19 45 0 29 8 -7 12 -16 9 -21z m-364 6 c0 -8 -6
-15 -14 -15 -8 0 -16 7 -20 15 -4 10 1 15 14 15 11 0 20 -7 20 -15z m140 -22
c0 -3 -7 -3 -15 1 -9 3 -15 0 -15 -9 0 -8 5 -15 10 -15 6 0 10 -4 10 -10 0
-16 -20 -12 -26 5 -9 23 3 45 21 39 8 -3 15 -8 15 -11z m310 -8 c-7 -9 -15
-13 -17 -11 -7 7 7 26 19 26 6 0 6 -6 -2 -15z m-360 -50 c0 -8 3 -15 8 -15 4
0 12 -12 19 -26 11 -23 10 -24 -10 -18 -12 3 -22 7 -22 8 0 0 -6 11 -13 24
-13 23 -9 42 9 42 5 0 9 -7 9 -15z m310 0 c0 -8 -9 -15 -20 -15 -25 0 -26 17
-2 23 9 3 18 5 20 6 1 0 2 -6 2 -14z m-207 -31 c-4 -10 -9 -12 -15 -6 -12 12
-1 35 12 27 5 -3 6 -13 3 -21z m-43 6 c0 -5 -7 -10 -15 -10 -8 0 -15 5 -15 10
0 6 7 10 15 10 8 0 15 -4 15 -10z m335 -40 c3 -5 1 -10 -4 -10 -6 0 -11 5 -11
10 0 6 2 10 4 10 3 0 8 -4 11 -10z m-283 -18 c-7 -2 -12 -10 -12 -18 0 -8 -4
-14 -10 -14 -6 0 -5 10 2 25 6 13 16 21 21 18 8 -5 7 -8 -1 -11z m-182 -48 c0
-13 -21 -44 -30 -44 -6 0 -10 11 -10 25 0 18 5 25 20 25 11 0 20 -3 20 -6z
m570 -25 c0 -6 -4 -7 -10 -4 -5 3 -10 11 -10 16 0 6 5 7 10 4 6 -3 10 -11 10
-16z m-694 -49 c23 0 17 -48 -6 -55 -11 -3 -20 -12 -20 -18 0 -7 -11 -17 -24
-23 -33 -15 -37 1 -28 110 2 14 7 17 26 12 21 -5 24 -3 20 17 -2 12 1 7 8 -10
6 -18 17 -33 24 -33z m41 34 c-3 -3 -12 -4 -19 -1 -8 3 -5 6 6 6 11 1 17 -2
13 -5z m92 -28 c23 -4 25 -26 3 -26 -10 0 -27 10 -38 22 -19 21 -19 21 1 14
11 -4 27 -9 34 -10z m111 4 c0 -5 -5 -10 -11 -10 -5 0 -7 5 -4 10 3 6 8 10 11
10 2 0 4 -4 4 -10z m120 6 c0 -3 -4 -8 -10 -11 -5 -3 -10 -1 -10 4 0 6 5 11
10 11 6 0 10 -2 10 -4z m-118 -41 c0 -5 -5 -11 -11 -13 -6 -2 -11 4 -11 13 0
9 5 15 11 13 6 -2 11 -8 11 -13z m154 -131 c-4 -10 3 -23 16 -35 18 -16 12
-15 -29 6 -56 27 -69 41 -29 31 14 -3 28 -2 31 4 10 16 18 12 11 -6z m-423
-96 c-3 -15 -9 -25 -14 -23 -4 3 -3 17 3 30 14 31 18 28 11 -7z m17 -47 c0 -5
-9 -11 -20 -14 -11 -3 -24 -17 -30 -32 -6 -15 -15 -25 -22 -23 -21 7 -20 26 2
33 11 3 18 11 15 16 -4 5 4 13 17 18 30 13 38 13 38 2z m-70 -21 c0 -5 -4 -10
-10 -10 -5 0 -10 5 -10 10 0 6 5 10 10 10 6 0 10 -4 10 -10z m-40 -65 c0 -3
-11 -5 -25 -5 -17 0 -23 4 -19 15 5 11 11 12 25 4 10 -5 19 -12 19 -14z m820
-1 c0 -8 -4 -12 -10 -9 -5 3 -10 10 -10 16 0 5 5 9 10 9 6 0 10 -7 10 -16z
m-780 -43 c0 -6 -4 -11 -10 -11 -5 0 -10 4 -10 9 0 5 -3 18 -7 28 -6 17 -6 17
10 1 9 -9 17 -21 17 -27z m710 -40 c0 -11 -9 -21 -22 -24 -29 -8 -32 -3 -16
22 16 26 38 27 38 2z m74 -32 c-8 -13 -24 -1 -24 18 0 13 3 13 15 3 8 -7 12
-16 9 -21z m-784 -29 c0 -5 -4 -10 -10 -10 -5 0 -10 5 -10 10 0 6 5 10 10 10
6 0 10 -4 10 -10z m787 -55 c-7 -13 -14 -20 -15 -14 -5 14 6 39 17 39 5 0 4
-11 -2 -25z m41 0 c-4 -17 -1 -25 8 -25 11 0 13 -32 9 -167 -6 -201 -10 -261
-18 -270 -4 -3 -7 10 -7 30 0 24 -6 40 -17 46 -16 9 -16 12 -3 21 11 7 12 14
4 27 -17 30 -17 102 1 109 16 7 21 44 5 44 -13 0 -13 33 1 64 9 19 9 29 0 40
-8 10 -9 21 -3 33 5 10 7 24 5 31 -6 14 3 42 13 42 3 0 4 -11 2 -25z m-57 -68
c-16 -16 -25 -1 -10 16 8 8 16 11 18 5 2 -5 -2 -15 -8 -21z m-821 -207 c0 -5
-12 -10 -26 -10 -14 0 -23 4 -19 10 3 6 15 10 26 10 10 0 19 -4 19 -10z m877
-282 c-2 -13 -4 -3 -4 22 0 25 2 35 4 23 2 -13 2 -33 0 -45z m-947 -13 c0 -8
-4 -15 -10 -15 -5 0 -10 7 -10 15 0 8 5 15 10 15 6 0 10 -7 10 -15z m932 -297
c-7 -7 -12 -8 -12 -2 0 14 12 26 19 19 2 -3 -1 -11 -7 -17z m-295 -30 c-3 -7
-5 -2 -5 12 0 14 2 19 5 13 2 -7 2 -19 0 -25z m208 -318 c3 -5 1 -10 -4 -10
-6 0 -11 5 -11 10 0 6 2 10 4 10 3 0 8 -4 11 -10z"/>
<path d="M5738 9273 c7 -3 16 -2 19 1 4 3 -2 6 -13 5 -11 0 -14 -3 -6 -6z"/>
<path d="M5613 9253 c9 -2 25 -2 35 0 9 3 1 5 -18 5 -19 0 -27 -2 -17 -5z"/>
<path d="M5708 9253 c7 -3 16 -2 19 1 4 3 -2 6 -13 5 -11 0 -14 -3 -6 -6z"/>
<path d="M4440 9126 c-36 -7 -85 -18 -110 -24 -146 -37 -278 -52 -390 -46 -83
4 -112 3 -105 -5 14 -14 275 -17 345 -2 30 6 89 13 130 16 77 4 94 7 120 18
18 8 57 15 88 16 13 1 20 5 17 11 -4 6 5 10 22 9 17 -1 21 -3 11 -6 -10 -2
-18 -8 -18 -12 0 -4 21 -3 47 3 42 10 44 11 18 14 -17 2 -34 8 -39 13 -13 12
-55 10 -136 -5z"/>
<path d="M3770 8989 c-260 -11 -383 -30 -475 -74 -93 -44 -195 -143 -195 -188
0 -8 9 -22 20 -32 12 -10 18 -26 15 -34 -4 -12 -2 -12 9 2 7 9 18 17 24 17 7
0 11 10 9 21 -1 12 4 24 12 27 8 3 11 0 7 -7 -5 -7 -1 -9 8 -5 9 3 16 12 16
19 0 7 6 18 13 24 12 9 23 13 67 20 3 1 -2 6 -10 11 -12 8 -10 10 10 10 14 0
45 11 69 25 23 14 51 25 60 25 9 0 21 4 27 10 5 5 25 12 44 14 19 3 35 6 35 7
0 5 82 7 95 2 21 -7 177 -6 190 2 5 3 14 3 20 0 5 -3 7 0 4 8 -7 20 28 27 57
11 27 -15 52 -19 29 -4 -12 7 -12 12 -2 22 10 10 61 13 202 13 105 0 190 3
190 8 0 4 9 7 20 7 11 0 20 -5 20 -11 0 -6 9 -9 20 -6 11 3 20 1 20 -5 0 -12
82 33 87 49 3 9 -4 9 -31 1 -26 -8 -73 -7 -188 6 -165 17 -184 17 -498 5z"/>
<path d="M6000 8926 c0 -2 7 -9 15 -16 9 -7 15 -8 15 -2 0 5 -7 12 -15 16 -8
3 -15 4 -15 2z"/>
<path d="M5815 8900 c3 -5 8 -10 11 -10 2 0 4 5 4 10 0 6 -5 10 -11 10 -5 0
-7 -4 -4 -10z"/>
<path d="M6200 8886 c0 -2 7 -7 16 -10 8 -3 12 -2 9 4 -6 10 -25 14 -25 6z"/>
<path d="M6950 8733 c-13 -15 -12 -16 4 -10 10 4 20 7 22 7 2 0 4 5 4 10 0 15
-13 12 -30 -7z"/>
<path d="M7248 8603 c7 -3 16 -2 19 1 4 3 -2 6 -13 5 -11 0 -14 -3 -6 -6z"/>
<path d="M4961 8504 c0 -11 3 -14 6 -6 3 7 2 16 -1 19 -3 4 -6 -2 -5 -13z"/>
<path d="M2523 7778 c7 -19 -8 -35 -16 -18 -3 6 -4 5 -3 -2 3 -16 18 -20 36
-8 13 8 12 12 -4 27 -17 17 -18 17 -13 1z"/>
<path d="M5021 7706 c-1 -30 3 -46 8 -40 5 5 6 27 1 49 l-8 40 -1 -49z"/>
<path d="M7770 7660 c0 -5 5 -10 11 -10 5 0 7 5 4 10 -3 6 -8 10 -11 10 -2 0
-4 -4 -4 -10z"/>
<path d="M7750 7640 c0 -8 5 -22 10 -30 9 -13 10 -13 10 0 0 8 -5 22 -10 30
-9 13 -10 13 -10 0z"/>
<path d="M7794 7555 c-7 -17 22 -50 31 -36 3 5 1 12 -4 16 -6 3 -8 12 -4 20 3
8 0 15 -6 15 -7 0 -14 -7 -17 -15z"/>
<path d="M4729 7413 c-13 -16 -12 -17 4 -4 16 13 21 21 13 21 -2 0 -10 -8 -17
-17z"/>
<path d="M4975 7390 c-3 -5 -1 -10 4 -10 6 0 11 5 11 10 0 6 -2 10 -4 10 -3 0
-8 -4 -11 -10z"/>
<path d="M4952 7350 c-13 -21 -6 -26 15 -12 7 4 9 13 5 19 -6 9 -11 6 -20 -7z"/>
<path d="M4892 7245 c-6 -14 -8 -25 -3 -25 8 0 23 41 17 47 -1 2 -8 -8 -14
-22z"/>
<path d="M4840 7100 c0 -5 5 -10 11 -10 5 0 7 5 4 10 -3 6 -8 10 -11 10 -2 0
-4 -4 -4 -10z"/>
<path d="M4876 7063 c-11 -11 -6 -23 9 -23 8 0 15 4 15 9 0 13 -16 22 -24 14z"/>
<path d="M4923 7000 c6 -16 15 -30 19 -30 4 0 24 -16 45 -35 22 -20 41 -31 47
-25 5 5 18 5 32 0 15 -6 24 -6 24 0 0 5 7 7 15 4 18 -7 21 31 4 42 -8 4 -7 9
2 15 9 6 -2 9 -31 9 -41 0 -129 26 -146 43 -16 16 -22 5 -11 -23z"/>
<path d="M5165 6900 c-4 -6 -11 -8 -16 -5 -5 4 -9 1 -9 -4 0 -6 11 -11 25 -11
16 0 25 6 25 15 0 17 -16 20 -25 5z"/>
<path d="M5297 6843 c-4 -3 -7 -14 -7 -24 0 -9 -6 -20 -12 -22 -9 -4 -10 -6
-1 -6 16 -1 43 27 43 45 0 15 -12 19 -23 7z"/>
<path d="M5513 6782 c0 -14 2 -20 6 -13 6 8 15 6 33 -9 37 -28 46 -25 17 6
-39 42 -54 46 -56 16z"/>
<path d="M5185 6760 c-3 -5 -1 -10 4 -10 6 0 11 5 11 10 0 6 -2 10 -4 10 -3 0
-8 -4 -11 -10z"/>
<path d="M5210 6710 c0 -5 5 -10 11 -10 5 0 7 5 4 10 -3 6 -8 10 -11 10 -2 0
-4 -4 -4 -10z"/>
<path d="M5120 6681 c0 -5 7 -11 15 -15 8 -3 15 -1 15 3 0 5 -7 11 -15 15 -8
3 -15 1 -15 -3z"/>
<path d="M5240 6470 c0 -13 11 -13 30 0 12 8 11 10 -7 10 -13 0 -23 -4 -23
-10z"/>
<path d="M5200 6356 c0 -2 7 -6 15 -10 8 -3 15 -1 15 4 0 6 -7 10 -15 10 -8 0
-15 -2 -15 -4z"/>
<path d="M5356 6335 c4 -8 8 -15 10 -15 2 0 4 7 4 15 0 8 -4 15 -10 15 -5 0
-7 -7 -4 -15z"/>
<path d="M5508 6323 c5 -25 6 -25 13 -8 11 29 10 35 -5 35 -9 0 -12 -8 -8 -27z"/>
<path d="M5391 6326 c-7 -8 -8 -17 -3 -20 6 -3 13 1 16 10 9 23 2 28 -13 10z"/>
<path d="M4948 6156 c-19 -14 -24 -36 -9 -36 5 0 16 11 25 25 18 27 11 32 -16
11z"/>
<path d="M4920 5825 c0 -8 4 -15 9 -15 5 0 14 7 21 15 10 13 9 15 -9 15 -12 0
-21 -6 -21 -15z"/>
<path d="M4888 5783 c6 -2 18 -2 25 0 6 3 1 5 -13 5 -14 0 -19 -2 -12 -5z"/>
<path d="M4783 5763 c-7 -2 -13 -13 -13 -24 0 -22 20 -17 38 11 13 21 4 25
-25 13z"/>
<path d="M4870 5734 c0 -11 5 -14 16 -10 9 3 24 6 35 6 10 0 19 5 19 10 0 6
-16 10 -35 10 -25 0 -35 -4 -35 -16z"/>
<path d="M5510 5703 c0 -10 4 -14 8 -8 4 6 11 13 16 18 5 4 2 7 -7 7 -10 0
-17 -8 -17 -17z"/>
<path d="M5551 5704 c0 -11 3 -14 6 -6 3 7 2 16 -1 19 -3 4 -6 -2 -5 -13z"/>
<path d="M4730 5690 c0 -5 5 -10 10 -10 6 0 10 5 10 10 0 6 -4 10 -10 10 -5 0
-10 -4 -10 -10z"/>
<path d="M4880 5675 c0 -8 4 -15 9 -15 5 0 11 7 15 15 3 9 0 15 -9 15 -8 0
-15 -7 -15 -15z"/>
<path d="M4708 5603 c6 -2 18 -2 25 0 6 3 1 5 -13 5 -14 0 -19 -2 -12 -5z"/>
<path d="M4677 5562 c-9 -9 -15 -26 -13 -37 3 -21 23 -33 23 -13 0 8 3 26 7
41 8 32 5 33 -17 9z"/>
<path d="M4767 5568 c5 -7 8 -23 7 -35 -1 -24 21 -32 28 -11 9 26 -4 58 -24
58 -15 0 -18 -4 -11 -12z"/>
<path d="M5552 5555 c0 -16 2 -22 5 -12 2 9 2 23 0 30 -3 6 -5 -1 -5 -18z"/>
<path d="M4707 5519 c-6 -22 15 -26 32 -5 9 11 7 15 -8 19 -13 3 -21 -1 -24
-14z"/>
<path d="M5525 5480 c-3 -5 -1 -10 4 -10 6 0 11 5 11 10 0 6 -2 10 -4 10 -3 0
-8 -4 -11 -10z"/>
<path d="M4716 5451 c-12 -18 27 -31 49 -15 15 12 16 14 3 14 -9 0 -23 3 -31
6 -8 3 -18 1 -21 -5z"/>
<path d="M4700 5405 c-8 -9 -8 -15 -2 -15 12 0 26 19 19 26 -2 2 -10 -2 -17
-11z"/>
<path d="M5500 5420 c-8 -23 -9 -60 -1 -60 15 0 19 13 10 40 -4 14 -8 23 -9
20z"/>
<path d="M4920 5230 c0 -5 5 -10 10 -10 6 0 10 5 10 10 0 6 -4 10 -10 10 -5 0
-10 -4 -10 -10z"/>
<path d="M4740 5095 c0 -16 9 -19 34 -9 20 8 11 24 -15 24 -10 0 -19 -7 -19
-15z"/>
<path d="M4800 5086 c0 -14 5 -26 10 -26 6 0 10 9 10 19 0 11 -4 23 -10 26 -6
4 -10 -5 -10 -19z"/>
<path d="M4640 5069 c0 -11 5 -17 10 -14 6 3 10 13 10 21 0 8 -4 14 -10 14 -5
0 -10 -9 -10 -21z"/>
<path d="M4742 5048 c0 -7 -4 -23 -7 -35 -8 -25 6 -31 22 -10 14 18 14 57 -1
57 -7 0 -13 -6 -14 -12z"/>
<path d="M4740 4955 c7 -9 15 -13 17 -11 7 7 -7 26 -19 26 -6 0 -6 -6 2 -15z"/>
<path d="M4732 4842 c-19 -13 -11 -62 10 -62 10 0 18 5 18 10 0 15 16 12 34
-6 9 -8 16 -11 16 -5 0 5 -5 13 -10 16 -8 5 -7 11 1 21 8 10 8 14 0 14 -6 0
-11 -4 -11 -9 0 -11 -40 -22 -52 -15 -5 4 -2 15 8 25 17 19 10 25 -14 11z"/>
<path d="M5532 4832 c3 -11 2 -36 -3 -54 l-8 -33 2 34 c1 19 -3 36 -10 38 -17
6 -8 -50 13 -81 22 -34 36 -23 28 21 -5 25 -3 38 7 44 10 6 11 9 2 9 -7 0 -13
6 -13 14 0 8 -5 18 -12 22 -7 5 -9 0 -6 -14z"/>
<path d="M4840 4780 c0 -5 5 -10 10 -10 6 0 10 5 10 10 0 6 -4 10 -10 10 -5 0
-10 -4 -10 -10z"/>
<path d="M4822 4739 c2 -6 8 -10 13 -10 5 0 11 4 13 10 2 6 -4 11 -13 11 -9 0
-15 -5 -13 -11z"/>
<path d="M4662 4381 c2 -7 7 -12 11 -12 12 1 9 15 -3 20 -7 2 -11 -2 -8 -8z"/>
<path d="M4680 4320 c0 -5 5 -10 11 -10 5 0 7 5 4 10 -3 6 -8 10 -11 10 -2 0
-4 -4 -4 -10z"/>
<path d="M4620 4250 c0 -5 5 -10 11 -10 5 0 7 5 4 10 -3 6 -8 10 -11 10 -2 0
-4 -4 -4 -10z"/>
<path d="M4770 4588 c0 -18 5 -28 15 -28 19 0 19 11 0 36 -14 18 -14 18 -15
-8z"/>
</g>
</svg>
